<?xml version="1.0" encoding="utf-8"?>
<!-- Generator: Adobe Illustrator 16.0.0, SVG Export Plug-In . SVG Version: 6.00 Build 0)  -->
<!DOCTYPE svg PUBLIC "-//W3C//DTD SVG 1.1//EN" "http://www.w3.org/Graphics/SVG/1.1/DTD/svg11.dtd">
<svg version="1.1"
	 id="svg2"
	 xmlns="http://www.w3.org/2000/svg" xmlns:xlink="http://www.w3.org/1999/xlink" x="0px" y="0px" width="2014.373px"
	 height="1496.705px" viewBox="0 0 2014.373 1496.705" enable-background="new 0 0 2014.373 1496.705" xml:space="preserve">
<g>
	<defs>
		<rect id="SVGID_1_" x="0" y="0" width="2014.373" height="1501.623"/>
	</defs>
	<clipPath id="SVGID_2_">
		<use xlink:href="#SVGID_1_"  overflow="visible"/>
	</clipPath>
	<g clip-path="url(#SVGID_2_)">
		<g id="g6327" transform="translate(-187.1248,-8.8481054)">
			<defs>
				<path id="SVGID_3_" d="M153.304,0h2055.923c0.771,0,1.396,0.726,1.396,1.621v921.9c0,0.896-0.625,1.621-1.396,1.621H153.304
					c-0.771,0-1.396-0.726-1.396-1.621V1.621C151.909,0.725,152.534,0,153.304,0z"/>
			</defs>
			<defs>
				<rect id="SVGID_4_" x="182.385" y="-780.314" width="2026.522" height="2285.867"/>
			</defs>
			<clipPath id="SVGID_5_">
				<use xlink:href="#SVGID_3_"  overflow="visible"/>
			</clipPath>
			<clipPath id="SVGID_6_" clip-path="url(#SVGID_5_)">
				<use xlink:href="#SVGID_4_"  overflow="visible"/>
			</clipPath>
			<g id="g53906" transform="matrix(1.2394145,0,0,1.4396381,151.90865,0)" clip-path="url(#SVGID_6_)">
				<path id="rect32402" fill="#FFFFFF" d="M-162.731,543.627h2014.439c0.504,0,0.913,0.409,0.913,0.913v392.133
					c0,0.505-0.409,0.914-0.913,0.914H-162.731c-0.504,0-0.913-0.409-0.913-0.914V544.54
					C-163.644,544.036-163.235,543.627-162.731,543.627z"/>

					<radialGradient id="rect3057_1_" cx="671.5923" cy="2069.4978" r="830.5187" gradientTransform="matrix(2.2525 0 0 -1.4219 -583.2249 3538.4609)" gradientUnits="userSpaceOnUse">
					<stop  offset="0" style="stop-color:#FFCC00"/>
					<stop  offset="0.3404" style="stop-color:#FFDD55"/>
					<stop  offset="1" style="stop-color:#D45500"/>
				</radialGradient>
				<path id="rect3057" fill="url(#rect3057_1_)" d="M1.126,0h1658.786c0.622,0,1.126,0.504,1.126,1.126v640.37
					c0,0.622-0.504,1.126-1.126,1.126H1.126c-0.622,0-1.126-0.504-1.126-1.126V1.126C0,0.504,0.504,0,1.126,0z"/>

					<radialGradient id="path27208-5-4_1_" cx="355.4517" cy="2103.3347" r="155.0548" gradientTransform="matrix(-3.7406 0 0 0.9949 2002.4744 -1562.5015)" gradientUnits="userSpaceOnUse">
					<stop  offset="0" style="stop-color:#FFF6D5;stop-opacity:0.5253"/>
					<stop  offset="1" style="stop-color:#FFF6D5;stop-opacity:0"/>
				</radialGradient>
				<path id="path27208-5-4" fill="url(#path27208-5-4_1_)" d="M672.958,637.151c-295.499,0-546.447-60.945-636.188-145.577
					c325.949-0.072,987.028-0.15,492.493-4.163c-134.404-1.091-319.284-1.284-498.113-1.536
					c-9.672-10.046-17.248-20.385-22.277-30.999c260.397-0.74,1845.325,1.608,957.292-12.873
					c-256.871-4.189-634.96-4.013-963.112-5.381c-0.923-4.562-1.606-9.134-1.606-13.77h1342.818
					c0,17.149-6.344,33.843-18.263,49.828c-321.836-0.716-1643.134-6.21-811.19,5.636c244.49,3.48,499.754,5.352,800.151,7.3
					C1230.916,573.339,975.344,637.151,672.958,637.151L672.958,637.151z"/>
				<g id="g27249" transform="matrix(-2.0103501,0,0,2.0103501,756.87166,3731.6841)">

						<radialGradient id="path27208_1_" cx="-2.5871" cy="-883.5955" r="71.2121" gradientTransform="matrix(-2.5633 0 0 -2.5201 -75.9818 -3784.2627)" gradientUnits="userSpaceOnUse">
						<stop  offset="0" style="stop-color:#FFF6D5"/>
						<stop  offset="0.8" style="stop-color:#FFF6D5;stop-opacity:0.5647"/>
						<stop  offset="1" style="stop-color:#FFF6D5;stop-opacity:0"/>
					</radialGradient>
					<path id="path27208" fill="url(#path27208_1_)" d="M-69.339-1619.489c-31.342,0-57.958,20.255-67.476,48.383
						c34.572,0.024,104.688,0.05,52.236,1.383c-14.255,0.363-33.864,0.427-52.831,0.511c-1.026,3.338-1.83,6.775-2.363,10.302
						c27.619,0.246,195.722-0.534,101.534,4.279c-27.245,1.392-67.346,1.333-102.151,1.788c-0.098,1.516-0.17,3.036-0.17,4.577
						H1.862c0-5.699-0.673-11.248-1.937-16.56c-34.135,0.238-174.277,2.064-86.038-1.873c25.931-1.157,53.005-1.779,84.866-2.427
						C-10.16-1598.281-37.267-1619.489-69.339-1619.489L-69.339-1619.489z"/>
				</g>

					<radialGradient id="path27208-5_1_" cx="76.2687" cy="2444.7593" r="155.0545" gradientTransform="matrix(4.5445 0 0 -2.0237 949.4234 4963.29)" gradientUnits="userSpaceOnUse">
					<stop  offset="0" style="stop-color:#FFF6D5;stop-opacity:0.5253"/>
					<stop  offset="1" style="stop-color:#FFF6D5;stop-opacity:0"/>
				</radialGradient>
				<path id="path27208-5" opacity="0.6633" fill="url(#path27208-5_1_)" enable-background="new    " d="M1295.904-202.157
					c359.003,0,663.878,123.973,772.904,296.13c-395.996,0.147-1199.14,0.306-598.33,8.468
					c163.287,2.219,387.897,2.613,605.157,3.126c11.75,20.433,20.955,41.467,27.064,63.057
					c-316.356,1.505-2241.885-3.272-1163.014,26.186c312.073,8.521,771.413,8.162,1170.084,10.944
					c1.123,9.28,1.951,18.581,1.951,28.011H480.332c0-34.884,7.707-68.843,22.187-101.359
					c390.999,1.456,1996.243,12.631,985.515-11.465c-297.03-7.08-607.151-10.887-972.104-14.852
					C618.041-72.35,928.536-202.157,1295.904-202.157L1295.904-202.157z"/>

					<radialGradient id="path27208-5-4-2_1_" cx="355.4518" cy="2561.1309" r="155.0543" gradientTransform="matrix(-3.7406 0 0 -0.9949 1739.7399 2792.5645)" gradientUnits="userSpaceOnUse">
					<stop  offset="0" style="stop-color:#FFF6D5;stop-opacity:0.5253"/>
					<stop  offset="1" style="stop-color:#FFF6D5;stop-opacity:0"/>
				</radialGradient>
				<path id="path27208-5-4-2" opacity="0.7239" fill="url(#path27208-5-4-2_1_)" enable-background="new    " d="M410.223,137.473
					c-295.5,0-546.446,60.945-636.188,145.577c325.949,0.072,987.028,0.15,492.493,4.163
					c-134.404,1.091-319.284,1.285-498.113,1.536c-9.672,10.045-17.248,20.385-22.277,30.999
					c260.396,0.74,1845.324-1.608,957.292,12.873c-256.871,4.189-634.961,4.012-963.112,5.38c-0.924,4.563-1.606,9.135-1.606,13.77
					h1342.818c0-17.149-6.344-33.843-18.262-49.828c-321.836,0.716-1643.134,6.21-811.19-5.636
					c244.49-3.481,499.754-5.353,800.151-7.301C968.181,201.285,712.609,137.473,410.223,137.473z"/>

					<radialGradient id="path27208-5-4-8_1_" cx="355.4514" cy="2103.335" r="155.0548" gradientTransform="matrix(-3.7406 0 0 0.9949 2646.8562 -1662.0144)" gradientUnits="userSpaceOnUse">
					<stop  offset="0" style="stop-color:#FFF6D5;stop-opacity:0.5253"/>
					<stop  offset="1" style="stop-color:#FFF6D5;stop-opacity:0"/>
				</radialGradient>
				<path id="path27208-5-4-8" opacity="0.6229" fill="url(#path27208-5-4-8_1_)" enable-background="new    " d="M1317.34,537.638
					c-295.499,0-546.446-60.945-636.188-145.577c325.949-0.072,987.028-0.15,492.493-4.163
					c-134.404-1.091-319.284-1.284-498.113-1.536c-9.672-10.045-17.248-20.385-22.277-30.999
					c260.397-0.74,1845.325,1.608,957.292-12.873c-256.871-4.189-634.96-4.012-963.112-5.38c-0.923-4.563-1.605-9.134-1.605-13.77
					h1342.817c0,17.149-6.344,33.843-18.262,49.828c-321.836-0.716-1643.134-6.21-811.19,5.636
					c244.489,3.481,499.754,5.352,800.151,7.301C1875.298,473.826,1619.727,537.638,1317.34,537.638z"/>
			</g>
			<g id="g18768" transform="matrix(2.7835385,0,0,2.7835385,155.04832,-1173.9943)" clip-path="url(#SVGID_6_)">
				<g id="g18761">
					<g id="g4726" transform="translate(-224.26913,580.96366)">

							<linearGradient id="path23352-31_1_" gradientUnits="userSpaceOnUse" x1="611.8749" y1="301.3592" x2="611.8749" y2="-86.5017" gradientTransform="matrix(2.7835 0 0 -2.7835 -1102.9653 828.3357)">
							<stop  offset="0" style="stop-color:#D45500"/>
							<stop  offset="1" style="stop-color:#FFCC00"/>
						</linearGradient>
						<path id="path23352-31" fill="url(#path23352-31_1_)" d="M833.415-96.228l1.75,4.938c-2.266-2.434-4.539-2.909-6.813-3.156
							c3.401,1.951,5.68,3.969,7.282,6l-7.188-0.75c5.161,1.395,8.734,3.491,11.312,6.031c-3.066-2.607-8.052-3.587-11.469-2
							c8.215,1.51,12.154,4.413,14.187,7.938c-4.001-2.721-10.95-5.378-16.875-2.531c6.177-0.11,11.972,2.796,16.656,6.281
							c-8.122-3.237-23.541-5.501-25.406-1.906c0.644-1.056,26.867,1.169,23.063,5.531c-6.019-2.735-11.567-0.76-17.219,0.062
							c9.729,1.064,20.263,0.372,25.875,10.25c-7.634-2.5-14.288,1.392-19.969,5.781c5.173-2.443,10.55-4.782,14.969-1.5
							c-3.936-0.308-7.732,1.097-11.531,2.312c4.823-0.868,9.553-1.285,13.594,1.156c-5.294-1.232-10.157,1.386-15.094,3.313
							c6.579-0.81,13.553-2.739,18.656,0.719l0.875,1.5c-8.13-2.65-15.39,1.501-22.844,4.219c8.303-1.231,17.021-4.131,24.125-0.719
							l-1.218,1.594c-6.866-3.554-15.007,0.466-22.781,2.313c-13.082-14.82-35.204-29.815-69.344-36.125
							c-3.06,0.052-2.757-0.818-9.625,0.281l6.438,2.968c-4.779-0.638-7.794,0.302-10.594,1.438
							c5.625-0.419,10.059-0.14,13.719,0.562l-8.812,3.625c7.112-1.902,13.052-2.29,18.281-1.75
							c-5.842-0.308-12.385,1.835-14.813,5.125c10.675-3.601,17.774-3.594,23.281-1.938c-7.004,0.149-13.627,1.064-17.75,6.844
							c8.469-4.563,17.552-4.339,26.687-3.531c-7.67,0.48-25.132,4.216-24.5,6.656c0.654-0.656,18.807-5.569,19.344-2.468
							c-9.302,1.322-13.752,6.143-19.406,10.125c11.985-4.852,23.292-11.568,38.625-6.875c-10.918,2.46-14.931,9.49-17.375,16.375
							c3.639-5.012,7.606-10.059,15.594-10c-4.737,2.062-7.771,5.412-10.969,8.625c4.672-3.534,9.674-6.601,16.469-7
							c-7.114,2.112-10.285,7.043-14.125,11.5c6.714-4.518,12.859-10.144,21.781-10.344l2.375,0.687
							c-11.616,2.63-16.06,10.27-22.031,16.844c8.285-5.869,15.542-13.339,26.688-14.75l0.062,2
							c-9.858,1.036-15.371,7.574-21.531,13.281c-14.039,0.797-30.039,5.834-46.813,18.031c-1.802,2.174-2.207,1.163-5.594,6.937
							l5.844-1.75c-3.299,2.742-4.457,5.678-5.375,8.656c3.097-4.291,5.924-7.126,8.594-9.031l-2.844,9.437
							c2.994-6.674,6.278-11.168,9.781-14.312c-3.715,3.781-6.19,10.289-5.438,14.969c3.992-10.697,8.298-15.616,12.719-17.937
							c-4.106,5.004-7.5,10.406-6.094,18.531c2.022-10.049,7.651-16.129,13.688-21.75c-4.276,5.748-12.277,21.282-10.281,23.094
							c-0.049-1.053,7.563-18.166,9.969-15.719c-4.699,7.669-4.123,15.196-4.844,22.75c3.938-12.746,6.2-26.767,18.562-33.156
							c-4.904,9.828-2.565,19.036,0.594,27c-1.182-7.09-2.212-14.439,2.625-19.938c-1.46,5.169-1.02,10.322-0.781,15.469
							c0.432-6.463,1.344-12.726,5.156-17.812c-2.853,6.867-1.407,13.557-0.719,20.281c0.997-8.778,0.87-18.177,6.094-24.562
							l1.906-1.031c-5.21,10.468-2.737,20.524-1.906,30.656c1.031-11.099,0.348-22.937,6.094-31.969l1.344,1.688
							c-0.682,0.735-1.359,1.478-2.063,2.187c0.559-0.403,1.094-0.847,1.625-1.281c-5.36,8.854-3.172,20.08-3.531,30.5
							c1.154-9.791,0.167-20.178,5.437-28.812c-3.182,8.273-1.573,18.72-1.656,28.406c0.496-9.708-1.051-20.059,4.875-28.093
							c-3.048,7.867-0.59,16.93,1.062,25.812c0.007-8.103-1.38-16.483,1.25-24.031l3.313-1.563
							c-3.161,8.141-1.372,17.579-0.937,26.656c0.674-7.878-1.099-16.351,3.156-23.344c0.349-0.389,0.677-0.802,1.031-1.188
							l2.438-1.469c-4.487,5.752-4.74,12.634-3.563,19.937c0.93-6.924,1.866-13.821,5.938-19.125
							c-0.339,0.722-0.622,1.451-0.875,2.187c-0.381,0.743-0.751,1.5-1.125,2.25c0.242-0.32,0.48-0.643,0.719-0.969
							c-1.236,4.441-1.128,9.106-0.75,13.812c0.441-6.423,0.532-13.031,4.719-17.594c-2.331,4.986-1.385,11.891-0.375,18.812
							c-5.203,7.242-9.957,14.809-14.468,22.5c-6.158,10.496-11.949,21.244-16.938,32.343c-3.757,8.358-6.716,17.073-9.75,25.719
							c-4.762,13.568-11.971,26.709-13.25,41.031c-0.14,1.566,0.634,3.115,0.625,4.688c-0.019,3.229-0.843,6.414-1.406,9.594
							c-0.878,4.963-1.488,10.004-2.531,14.937c-8.666-0.405-17.452-0.781-26.344-1.125l1.188-23.281l1.438,0.094l0.343-6.25
							l-2.344-0.125l0.906-17.562c2.773-1.199,6.966-6.049,9.375-8.156c1.595-0.898,2.298-2.545,3.656-3.781
							c2.33-1.645,3.713-6.257-0.281-6.562c-2.972-0.749-5.742-2.15-8.781-2.656c-3.967-1.395-8.233-0.791-12.25-1.938
							c-2.452-0.659-5.658,0.149-6.469-2.781c-0.907-1.099-1.272-2.584-2.688-3.187c-1.344-0.599-2.6-1.311-4.094-1.469
							c-2.374-0.195-5.112-0.25-6.875,1.719c-1.457,0.832-2.343,2.361-3.062,3.844c-1.931,1.035-4.149,0.253-6.219,0.375
							c-4.398-0.353-8.79-0.103-13.188,0.094c-2.502,0.43-5.011,1.182-7.344,2.063c-1.089,2.646,0.284,5.164,1.594,7.375
							c0.705,1.679,3.488,5.629,6,8.812l-1.125,21.875l-2.344-0.125l-0.312,5.906l1.812,0.094l-1.281,24.063
							c-22.952-0.534-46.267-0.868-69.719-1c0.149-0.303,0.219-0.645,0.219-1v-13.656c0-0.184-0.052-0.359-0.094-0.531
							c1.039-0.177,1.844-0.997,1.844-2v-7.062c0-1.133-1.011-2.063-2.25-2.063h-2.938l3.344-31.875
							c0.353-2.617,1.061-3.646-2.281-3.719c-7.385-0.16-14.161-0.156-21.844-0.156c-0.044-0.085-0.106-0.168-0.156-0.25
							c6.405-0.559,10.469-1.724,10.469-3c-0.037-1.211-3.733-2.323-9.656-2.906c-0.347-4.445-4.853-7.808-10.064-7.512
							c-4.755,0.27-8.532,3.516-8.811,7.574c-5.468,0.613-8.778,1.688-8.75,2.844c-0.001,1.227,3.754,2.355,9.781,2.938
							c-0.055,0.098-0.112,0.21-0.156,0.313c-7.333-0.268-14.417,0.091-21.469,0.187c-3.31,0.015-2.948,0.63-2.594,4l3.313,31.563
							h-2.844c-1.238,0-2.219,0.929-2.219,2.063v7.062c0,1.003,0.773,1.823,1.812,2c-0.042,0.172-0.094,0.347-0.094,0.531v13.656
							c0,0.429,0.133,0.838,0.344,1.188c-6.034,0.059-12.056,0.132-18.062,0.219L521.04,35.303c0.111,0.011,0.344,0.031,0.344,0.031
							s2.526-2.255,3.031-1.75c0.505,0.505,2.152,2.006,2.531,1.375c0.379-0.631,0.75-3.906,0.75-3.906l0.406-4.688l66.281-10.469
							c-21.368-2.017-42.619-3.289-65-11.719l-0.719-2.938l-12.813-1.812l-1.25-1.344l-1,0.156l-0.75,1.656l-11.625,5.656
							l0.219,3.031c-18.695,14.914-38.511,22.686-58.219,31.188l65.125-10.282c0.213,1.372,0.691,3.969,1.156,3.969
							c0.632,0,1.5,2.656,1.5,2.656l1.781-0.656c0,0,1.276,1.155,1.781,1.281c0.505,0.126,2.906-2.406,2.906-2.406
							s0.306,0.092,0.625,0.187l18.625,117.969c-10.086,0.171-20.113,0.379-30.062,0.625c0.074-0.239,0.134-0.488,0.125-0.75
							l-0.5-13.656c-0.007-0.183-0.046-0.36-0.094-0.531c1.032-0.215,1.786-1.06,1.75-2.063l-0.281-7.062
							c-0.041-1.132-1.075-2.014-2.312-1.969l-3.032,0.125l1.969-41.687c0.234-3.277,0.875-4.594-2.469-4.563
							c-7.387,0.07-14.135,0.281-21.812,0.562c-2.716-5.92-15.554-5.142-17.312,0.656c-7.34-0.065-14.426,0.653-21.469,1.031
							c-3.307,0.139-2.914,0.87-2.406,5.063l4.969,41.062l-3.031,0.125c-1.238,0.045-2.198,0.993-2.156,2.125l0.25,7.062
							c0.036,1.003,0.83,1.799,1.875,1.938c-0.035,0.174-0.069,0.348-0.062,0.531l0.5,13.656c0.005,0.148,0.062,0.267,0.094,0.406
							c-5.062,0.229-10.084,0.469-15.062,0.719c-3.937-16.681-14.519-53.448-20-63.031c-2.907-5.203-5.717-10.429-9.531-15.437
							c-5.065-6.651-11.111-13.061-17.656-19.312c-5.549-5.301-11.485-10.526-18.281-15.407c-1.21-0.869-3.049-2.857-5.031-5.219
							c0.262-6.062,0.482-12.121-1.969-16.219c3.988,3.544,4.653,9.189,5.594,14.656c-0.111-5.145-0.58-10.174-3.25-14.625
							c3.954,4.189,5.346,10.053,6.75,15.906c0.37-6.363-0.463-12.275-4.812-16.813l2.719,1.312
							c4.854,5.691,3.932,13.449,5.25,20.406c-0.422-7.819,0.298-16.048-3.125-22.75l2.969,1.031
							c2.915,6.24,2.472,13.555,3.188,20.5c0.598-7.263,1.778-14.733-0.781-20.969c0.071,0.055,0.147,0.102,0.219,0.156
							c-0.091-0.096-0.191-0.185-0.281-0.281c-0.16-0.381-0.342-0.754-0.531-1.125c5.782,6.368,5.381,15.347,6.656,23.625
							c-0.919-8.295-0.454-17.375-3.906-24.188c5.273,6.94,5.341,15.927,7.188,24.219c-1.258-9.173-0.248-19.305-6.187-26.469
							l1.031-1.688c5.716,7.239,6.175,17.451,8.031,26.875c-0.175-8.758,1.069-17.577-4.312-26.094l1.688,0.719
							c5.037,5.016,5.783,13.095,7.406,20.531c0.001-5.824,0.641-11.707-2.406-17.344c3.713,4.026,5.064,9.31,6,14.812
							c-0.246-4.432-0.327-8.854-2.031-13.156c4.627,4.29,4.392,10.663,4,16.844c2.01-7.102,3.189-15.192-1.875-23.187
							c11.155,4.394,14.352,16.201,18.844,26.781c-1.279-6.412-1.457-12.9-6.156-19.062c1.908-2.383,10.369,12.592,9.875,12.625
							c1.661-1.608-6.509-14.243-10.719-18.875c5.64,4.275,10.96,8.974,13.563,17.375c0.495-7.088-2.886-11.414-6.844-15.344
							c3.992,1.603,8.111,5.43,12.469,14.25c0.235-4.077-2.484-9.428-6-12.344c3.278,2.388,6.537,5.947,9.688,11.406l-3.313-7.812
							c2.455,1.399,5.158,3.562,8.187,6.969c-1.048-2.473-2.307-4.907-5.375-6.969l5.156,1c-3.408-4.653-3.64-3.732-5.375-5.438
							c-16.242-9.45-31.06-12.159-43.562-11.219c-3.93-4.866-7.89-9.714-16.062-11.75l2.062-0.562
							c7.682,0.338,12.863,5.327,18.563,9.344c-3.225-3.91-5.849-8.236-11.938-10.188c5.845,0.47,10.072,3.213,14.031,6.344
							c-2.695-2.827-5.239-5.761-9.281-7.625c6.881,0.098,10.208,4.521,13.25,8.906C388-3.986,384.68-10.125,375.321-12.447
							c13.295-3.758,22.922,2.254,33.156,6.656c-4.797-3.535-8.574-7.782-16.562-9.094c0.52-2.661,16.105,1.891,16.656,2.469
							c0.417-2.1-14.53-5.619-21.063-6.156c7.911-0.531,15.735-0.601,22.969,3.5c-3.445-5.055-9.126-5.929-15.156-6.187
							c4.775-1.324,10.902-1.207,20.031,2.094c-2.03-2.879-7.618-4.876-12.656-4.719c4.515-0.368,9.627,0.073,15.719,1.844
							l-7.531-3.25c3.166-0.537,6.975-0.684,11.813-0.219c-2.39-1.03-4.934-1.93-9.063-1.469l5.563-2.437
							c-5.896-1.075-5.647-0.305-8.281-0.406c-27.451,4.464-46.08,15.582-57.844,27.187c-5.379-2.358-10.747-5.203-16.188-2.625
							l0.563-1.5c3.645-3.559,9.166-1.89,14.313-1.312c-3.974-1.725-7.925-4.132-11.907-2.75c2.912-2.526,6.579-2.286,10.375-1.593
							c-3.036-1.066-6.082-2.307-9.094-1.875c3.132-3.363,7.487-1.255,11.688,0.969c-4.757-4.116-10.226-7.672-15.906-4.969
							c3.493-9.87,11.675-9.573,19.094-10.938c-4.432-0.619-8.868-2.38-13.281,0.5c-3.307-4.151,16.757-7.171,17.344-6.156
							c-1.751-3.475-13.557-0.741-19.531,2.719c3.327-3.596,7.605-6.653,12.406-6.75c-4.815-2.594-9.987,0.263-12.844,3.063
							c1.271-3.523,4.101-6.498,10.312-8.25c-2.772-1.443-6.573-0.345-8.719,2.313c1.775-2.576,4.354-4.743,8.219-6.281
							l-5.469,0.969c1.064-2.044,2.666-4.069,5.125-6.094c-1.734,0.317-3.457,0.851-5,3.313l0.906-4.906
							c-3.327,2.035-2.728,2.58-3.969,3.813c-12.537,23.552-12.409,45.99-8.656,61.156c-15.91-14.369-42.611-29.34-69.75-20.562
							c-1.403,1.177-1.806,0.22-4.344,3.813l4.844,0.5c-2.64,1.141-3.457,3.182-4.063,5.313c2.377-2.476,4.626-3.834,6.781-4.5
							l-1.875,6.719c2.152-4.46,4.679-7.005,7.469-8.406c-2.933,1.852-4.63,6.326-3.719,10.406
							c2.764-7.418,6.103-10.015,9.719-10.438c-3.193,2.721-6.824,8.384-5.156,15.5c0.922-6.154,4.594-10.572,8.625-13.625
							c-4.36,6.54-9.04,20.762-6,24.218c-0.876-1.109,5.539-25.927,8.969-20.219c-3.54,4.704-2.642,11.029-2.812,16.969
							c2.599-9.111,3.725-19.81,13.844-20.906c-3.589,6.401-1.082,14.712,2.063,22.281c-1.417-6.195-2.691-12.555,1.094-15.437
							c-0.937,3.741-0.283,8.116,0.219,12.406c-0.01-5.143,0.404-9.989,3.344-12.875c-2.011,4.638-0.446,10.58,0.531,16.282
							c-13.515,0.363-29.596,4.481-47.437,15.25c-1.984,1.845-2.221,1.028-6.188,5.906l5.688-1.562
							c-3.455,2.343-4.943,4.809-6.219,7.312c3.487-3.634,6.53-6.023,9.281-7.656l-4,7.906c3.729-5.624,7.422-9.412,11.125-12.094
							c-3.99,3.218-7.192,8.664-7.156,12.562c5.227-9.001,9.905-13.178,14.344-15.187c-4.527,4.246-8.437,8.826-8.281,15.594
							c3.303-8.425,9.376-13.585,15.781-18.375c-4.823,4.914-14.513,18.113-12.781,19.469c-0.536,0.027,9.518-15.385,11.469-13.312
							c-5.455,6.482-6.009,12.77-7.75,19.093c5.468-10.712,9.571-22.467,21.969-28c-5.952,8.29-5.088,15.957-3.281,22.563
							c-0.094-5.906,0.005-12.048,5.281-16.719c-2.09,4.342-2.43,8.64-2.938,12.937c1.317-5.408,3.079-10.659,7.344-14.969
							c-3.626,5.783-3.249,11.36-3.562,16.969c2.171-7.351,3.395-15.208,9.156-20.625l1.906-0.875
							c-4.427,6.178-5.314,12.122-5.687,18.031c-12.078,7.627-24.474,20.078-34.844,39.531c-0.8,2.743-1.451,2.094-2.406,8.656
							l4.312-4.5c-1.863,3.989-1.885,7.074-1.688,10.031c1.194-5.176,2.641-9.002,4.25-11.969l0.656,9.313
							c0.338-7.11,1.658-12.539,3.562-16.969c-1.875,5.071-1.858,11.769,0.281,15.281c-0.131-10.978,1.847-17.313,4.781-21.531
							c-1.805,6.292-2.861,12.549,0.937,18.594c-1.562-9.418,1.161-17.386,4.375-25.187c-1.708,7.007-3.355,24.122-1.094,24.563
							c-0.38-0.852,0.422-19.047,3.219-18.25c-1.437,8.819,1.471,14.801,3.312,21.469c-0.837-12.657-3.457-25.507,4.782-37.219
							c-0.911,10.725,3.981,17.182,9.187,22.188c-3.277-5.299-6.473-10.887-4.219-17.969c0.454,5.062,2.45,9.115,4.312,13.281
							c-1.729-5.61-2.971-11.291-1.437-17.5c-0.159,7.198,3.191,12.032,5.938,17.281c-2.006-7.831-5.134-15.605-2.844-23.625
							l1.25-1.844c-0.069,0.825-0.087,1.624-0.094,2.406c-0.105,0.689-0.19,1.381-0.313,2.062c0.12-0.527,0.206-1.063,0.313-1.593
							c0.065,9.775,4.784,16.337,8.406,23.656c-2.728-9.784-7.12-19.317-5.25-29.813l1.75,0.781
							c-2.111,10.584,3.619,19.014,6.781,28.156c-2.203-8.757-6.414-16.893-4.812-26.813c0.022,8.539,4.751,16.415,7.812,24.531
							c-2.303-7.058-5.934-13.738-5.594-21.531c0.243-1.102,0.439-2.198,0.625-3.313c0.416,7.616,5.127,13.647,9.187,19.906
							c-2.613-6.757-6.471-13.069-6.718-20.719l0.281-0.406c-0.003,0.294-0.003,0.579,0,0.875c0.161-0.506,0.338-0.996,0.5-1.5
							l1.469-1.969c-0.004,8.418,4.548,15.378,7.844,22.719c-2.062-7.187-6.586-13.561-4.781-22.063l1.875-3.062
							c-1.88,7.112,0.158,13.021,3.5,18.5c-1.462-6.252-2.929-12.508-1.25-19.031c-0.369,5.867,1.552,10.754,3.875,15.469
							c-1.601-5.232-3.491-10.455-2.063-16c0.138,2.089,0.474,4.176,0.813,6.281c0.001-0.954-0.017-1.916-0.031-2.875
							c1.226,4.997,4.609,9.929,7.375,14.875c-3.257-6.764-7.36-12.989-6-22.656c-0.207,2.101-0.001,3.993,0.5,5.75
							c0.036,0.626,0.1,1.254,0.156,1.875c0.039-0.364,0.087-0.729,0.125-1.094c1.345,3.933,4.112,7.178,6.844,10.438
							c-3.11-5.226-7.011-10.272-5.813-16.594c0.988,5.221,3.307,9.133,5.938,12.75c-1.732-3.758-3.627-7.521-3.437-11.125
							c0.141,0.902,0.409,1.842,0.875,2.844c-0.151-1.267-0.155-2.61,0.031-3.813c0.099,0.033,0.208,0.064,0.313,0.094
							c0.671,0.991,1.259,1.135,3.062,2.25c2.593,2.005,6.186,4.813,7.969,6.281c5.31,4.373,10.34,8.838,15.437,13.281
							c4.665,4.067,10.098,7.914,13.844,12.25c3.948,4.57,6.261,9.531,9,14.375c2.888,5.107,5.54,10.258,7.844,15.469
							c1.863,4.215,4.05,8.42,4.813,12.781c1.443,9.513,4.754,36.494,3.219,46.843c-8.096,0.453-16.058,0.932-23.875,1.438
							c0.018-0.023,0.046-0.039,0.062-0.062c1.041-1.448,0.134-3.683-0.562-5.281c-0.313-0.719-0.903-1.759-1.594-2.25
							c-0.681-0.483-1.278-1.266-2.156-1.781c-1.251-0.733-2.343-0.809-3.562-1.219c-1.026-0.345-2.139-0.318-2.781-0.969
							c-0.922-0.934-0.642-3.41-0.844-4.719c-0.662-4.301-3.414-5.508-4.156-9.719c-0.295-1.671,1.066-5.904,0.094-6.906
							c-0.61-0.629-0.352-2.42-0.375-3.344c-0.068-2.64-0.39-5.411-1-8.063c-0.316-1.375-0.433-2.843-1-4
							c-0.617-1.261-1.2-2.706-1.812-3.781c-0.517-0.91-0.788-1.391-1.688-2.031c-0.669-0.476-1.109-0.947-1.938-1.219
							c-1.302-0.427-3.126,0.583-4.531,0.688c-0.768,0.057-0.845-1.091-1.625-1.344c-0.742-0.24-2.022,0.155-3-0.562
							c-0.14-0.103-0.35,0.035-0.531,0.062c-2.783,0.467-4.045,0.398-5.375,2.344c-0.463,0.677-0.989,1.701-0.875,2.531
							c0.24,1.718,0.306,3.716-0.188,4.75c-0.888,1.861,1.018,0.627,1.312,3.281c0.132,1.184,0.662,1.924,1.219,2.313
							c0.7,0.488,2.082,0.159,2.844,0.375c0.929,0.263,1.178,0.635,1.094,2.5c1.383,4.485-5.133,7.241,0.594,14.875
							c0.807,1.117,1.96,2.227,1.969,4.531c0.499,1.655,0.854,3.591-0.375,4.438c-1.503,1.036-2.146,0.268-2.813-1.063
							c-0.268-0.537-1.03-1.511-1.688-2.125c-0.822-0.768-1.178-1.744-1.75-2.375c-0.658-0.726-1.24-1.323-2-1.812
							c-0.961-0.619-1.373-1-1.594-2.094c-0.357-1.775-0.403-3.496-1.469-4.656c-0.698-0.76-0.954-1.494-2-1.812
							c-0.198-0.06-1.102-0.573-1.531-0.906c-0.602-0.469-1.466-0.774-2.031-1.094c-0.836-0.474-1.805-0.604-2.687-0.937
							c-1.381-0.521-2.626-0.496-3.969-0.781c-1.366-0.29-1.294-2.668-0.531-3.531c0.787-0.889,1.111-1.511,1.094-2.656
							c-0.023-1.511-0.419-3.359-0.844-4.625c-0.454-1.351-1.118-2.044-2.219-2.906c-0.69-0.541-1.803-1.033-2.469-1.375
							c-2.787-1.431-5.426-0.864-8.313,1.25c-0.855,0.626-1.167,0.737-1.469,1.656c-0.183,0.559-1.11,1.968-1.031,3
							c0.174,2.264,0.343,4.721,1.5,6.437c0.543,0.806,1.289,2.227,2.094,3.125c0.735,0.821,0.958,1.33,1.812,1.969
							c0.58,0.435,1.676,1.683,0.844,2.281c-1.24,0.891-3.395,0.365-4.469,1.281c-0.613,0.523-1.625,1.838-2.094,2.563
							c-0.601,0.93-1.184,2.017-1.25,3.313c-0.106,2.077,0.048,3.925-0.313,5.938c-0.245,1.368-0.138,2.56-0.813,3.781
							c-0.349,0.633-0.829,1.848-1.312,2.687c-0.737,1.282-1.984,0.426-3.187,0.344c-1.484-0.101-3.182,0.294-4,1.125
							c-0.518,0.526-1.945,1.501-2.375,2.25c-0.603,1.05-1.016,1.252-1.656,2.25c-0.765,1.191-1.415,2.199-2.094,3.437
							c-0.594,1.085-1.238,1.965-1.75,3.25c-0.467,1.174-1.171,2.326-1.406,3.125c-0.206,0.7-0.482,1.3-0.781,1.875
							c-80.302,8.771-125.362,20.575-125.5,32.875c-0.125,6.795,13.48,13.512,39.875,19.687l1.437,190.75
							c62.656,16.083,131.173,20.377,203.937,16.875c81.513-3.923,156.973-0.055,232.875-8.312
							c190.499-20.724,293.739-15.347,351.531,36.594l-5.75-233.5c33.567-6.805,51.038-14.393,50.875-22.093
							c-0.152-11.446-39.212-22.491-109.844-31.063l-1.25-18.844l3.781-1.188c2.322-0.755,1.986-1.846,0.188-1.844l-14.187,0.531
							l-2.125-25.75c-0.133-1.969-0.956-1.617-1.531-2.125l-24.344-2.156c-2.934-0.405-2.849-0.442-2.594,2.375l3.313,36.469
							l-7.688,7.688c-5.26-0.482-10.626-0.951-16.094-1.406l3.031-54.125c0.702-0.107,1.309-1.056,1.375-2.219
							c0.066-1.162-0.408-2.127-1.094-2.312l0.312-5.906l3.219-6.969c13.827,6.951,27.682,13.015,41.562,18.625
							c1.555,1.188,3.809,0.46,2.219-3.156c-5.511-13.412-14.503-25.953-32.875-36.125v-0.562l0.062-1.094l-0.844-0.562
							l-0.781-0.344l-0.969-0.281l-0.813,0.75l-0.375,0.375c-8.596-3.244-16.408-4.839-23.594-5.219
							c-9.239-0.488-17.494,1.009-25.25,3.531c-3.786,1.129-2.913,3.334-1,3.75c13.19,6.908,26.711,13.49,40.875,19.5l-3.281,7.125
							l-0.094,0.156v0.187l-3.656,64.719c-5.086-0.408-10.254-0.804-15.5-1.188l0.719-14.281c1.552,0.077,2.59,0.659,2.438-1.313
							l-1.844-2.156l0.813-16.312c-0.023-0.688-0.345-1.149-0.719-1.125c-0.291,0.018-0.606,0.348-0.812,1.062l-0.688,2.187
							l-24.094-1.219l-1.125-0.031l-0.375-1.719c0.099-1.374-1.548-1.774-1.656-0.062l-0.844,17.125
							c-1.836-1.257-3.58-3.531-3.313-0.062l1.813,2.094l-0.688,13.719c-7.9-0.474-15.935-0.923-24.094-1.344
							c-0.041-3.707-0.121-7.298-0.219-8.625c-0.195-2.646-1.597-5.063-2.156-7.656c-0.769-3.565-1.475-7.169-1.625-10.812
							c-0.221-5.377,0.201-10.813,1.063-16.125c1.165-7.189,3.478-14.138,5.531-21.125c2.538-8.638,5.368-17.201,8.375-25.687
							c2.852-8.05,5.344-16.264,9.156-23.906c3.617-7.25,8.565-13.784,12.906-20.625c4.743-7.476,9.466-14.976,14.375-22.344
							c0.541-0.811,1.34-1.598,2.25-2.375c2.364-0.346,3.442-0.348,4.313-0.531c0.099,0.158,0.216,0.309,0.313,0.469l-0.219-0.5
							c0.364-0.085,0.725-0.2,1.125-0.406c0.177,0.583,0.336,1.186,0.5,1.781c-1.603,2.712-5.029,4.985-8.312,7.281
							c4.339-2.008,8.488-4.356,11.844-8.125c0.022,0.052,0.041,0.104,0.063,0.156c-1.745,5.277-7.978,8.008-13.5,11.125
							c5.666-2.231,11.403-4.403,14.469-8.875c0.048,0.112,0.076,0.232,0.125,0.344c-0.041-0.121-0.054-0.253-0.094-0.375
							c0.307-0.452,0.594-0.936,0.844-1.437c0,0.052,0,0.105,0,0.156c-0.233,0.573-0.476,1.127-0.75,1.656
							c-3.355,6.49-9.614,9.824-15.375,13.719c6.725-4.014,14.532-7.641,17.031-13.125c-0.509,5.545-5.176,9.377-9.5,13.344
							c4.389-2.913,8.451-6.076,10.75-10.625c-0.048,0.376-0.11,0.749-0.156,1.125c-1.573,5.051-5.464,9.16-9.375,13.281
							c6.029-3.327,10.834-7.442,12-13.875l0.656,3.125c-1.869,7.539-9.546,11.19-14.969,16.344
							c6.813-4.859,14.771-8.954,18.531-15.812l1.062,3.187c-3.686,6.148-10.617,9.977-16.437,14.594
							c7.478-3.89,15.607-7.319,19.25-13.937c-1.856,8.745-10.287,13.532-16.938,19.406c6.909-5.57,15.471-10.363,19.312-17.312
							c-2.72,8.626-10.85,13.803-17.125,20.187c7.475-6.372,17.372-11.285,19.844-20.625h1.031c0.047,0.407,0.128,0.813,0.188,1.218
							c-0.001-0.417-0.004-0.831,0-1.25h1c-2.691,9.186-11.641,15.457-18.937,22.5c7.833-5.18,16.672-9.187,20.75-18.812
							l0.531,1.938c-1.133,7.312-7.975,12.584-13.625,18.281c5.289-3.342,11.045-6.145,14.094-12.063
							c-1.134,5.58-5.014,9.8-9.375,13.781c3.857-2.761,7.844-5.406,10.594-9.375c-0.752,6.535-6.715,10.017-12.594,13.219
							c7.814-2.307,15.961-5.922,19.781-14.969c3.587,12.342-4.974,21.911-11.531,31.937c4.953-4.806,10.752-8.671,13.156-16.344
							c3.351,0.302-3.93,15.404-4.719,15.969c2.637,0.325,8.534-14.195,9.813-20.438c-0.042,7.474-0.689,14.897-6.594,22.062
							c6.772-3.632,8.432-9.104,9.313-14.843c1.256,4.434,0.549,10.258-4.5,19.156c3.862-2.133,6.896-7.575,7.156-12.343
							c0.058,4.256-0.964,9.156-3.781,15.062l4.844-7.375c0.397,2.964,0.255,6.565-0.781,11.187c1.534-2.342,2.9-4.835,2.688-8.719
							l2.594,5.125c1.911-5.671,0.911-5.399,1.281-7.906c-2.519-20.278-10.828-35.028-20.969-45.438
							c-0.358-8.863,0.345-18.021-3.219-25.937c6.111,9.214,5.605,19.285,7.375,29.062c-0.983-10.6,0.924-21.664-6-31.313
							l1.375-1.562c6.642,9.671,6.603,21.204,8.313,32.25c0.335-9.836,2.396-19.368-3.75-30.375l2.094,1.281
							c5.939,6.998,6.329,16.209,7.875,24.969c0.369-6.508,1.553-12.889-1.875-20.031c4.357,5.526,5.685,11.81,6.5,18.219
							c-0.026-5.022,0.157-10.002-1.688-15.281c5.476,6.074,4.784,13.138,3.906,19.938c2.945-7.382,4.94-16.102-0.843-26.438
							c13.577,7.996,16.777,22.058,21.687,35.125c-1.184-7.52-0.991-14.814-6.438-23c2.44-2.069,11.494,15.786,11.5,16.812
							c1.976-1.569-7.372-17.867-12.25-24.094c6.766,6.361,13.131,13.098,15.844,23.25c1.062-7.784-2.864-13.545-7.531-19.031
							c4.857,2.896,9.707,8.313,14.562,19.375c0.55-4.492-2.443-11.207-6.625-15.437c3.92,3.575,7.713,8.434,11.281,15.406
							l-3.594-9.656c2.96,2.243,6.14,5.417,9.687,10.063c-1.145-3.054-2.539-6.129-6.219-9.281l6.344,2.562
							c-3.939-6.143-4.296-5.207-6.344-7.594c-21.808-16.77-42.131-23.356-59-24.437c0.041-5.136-1.102-10.279-7.469-12.719
							c11.785-2.632,17.733,3.316,24.625,7.844c-2.791-3.446-4.548-7.499-10.563-9.125c1.332-4.476,19.369,8.094,18.875,9.032
							c1.879-3.018-9.516-9.859-17.25-12.313c5.826,0.496,11.847,1.898,15.562,5.219c-1.253-4.735-7.803-6.899-12.562-7.469
							c4.225-0.923,9.102-0.476,15.437,3c-0.768-2.7-4.663-4.765-8.75-4.906c3.73-0.078,7.706,0.6,12.063,2.531l-5.063-3.375
							c2.699-0.305,5.791-0.22,9.531,0.469c-1.609-1.059-3.395-1.996-6.844-1.812l5.219-1.875c-4.407-1.296-4.449-0.605-6.531-0.844
							c-28.903,3.062-48.724,13.241-60.406,23.031c5.214-18.292,5.619-45.143-13.5-68.906
							C837.238-93.739,837.936-94.305,833.415-96.228L833.415-96.228z M840.446-40.759c2.722-0.112,5.397,0.196,7.937,1.344
							c-5.62-1.108-12.231,1.509-18.656,3.375c-0.739-0.913-1.505-1.833-2.313-2.75C831.754-39.381,836.167-40.584,840.446-40.759z
							 M841.759-38.166c2.293,0.021,4.501,0.514,6.594,1.75c-5.002-1.002-10.331,1.526-15.687,4.25
							c-0.891-1.246-1.825-2.518-2.844-3.781c3.677-0.897,7.382-2.026,10.938-2.187C841.089-38.149,841.431-38.169,841.759-38.166z
							 M816.946-37.541c-6.052,1.973-10.571,6.383-15.094,10.812c-1.736-0.048-3.507-0.085-5.312,0
							C802.567-31.272,808.178-36.282,816.946-37.541z M819.634-35.103c-4.97,1.607-8.33,4.961-11.219,8.813
							c-1.961-0.241-3.994-0.365-6.063-0.437C807.074-30.829,812.036-34.606,819.634-35.103z M845.04-34.166
							c0.733,0.005,1.465,0.044,2.188,0.156l1.375,2.687c-4.406-0.887-9.107,0.567-13.844,2.25c-0.531-0.825-1.069-1.662-1.656-2.5
							C837.117-32.828,841.142-34.19,845.04-34.166z M820.54-32.478l4,1.344c-3.871,1.248-6.927,3.433-9.687,5.969
							c-1.396-0.31-2.816-0.585-4.281-0.813C813.435-28.641,816.543-31.03,820.54-32.478z M841.477-29.603
							c1.883-0.048,3.736,0.266,5.5,1.219l1.563,2.312c-3.765-2.397-7.903-2.066-12.219-0.5c-0.377-0.643-0.775-1.283-1.188-1.937
							C837.27-29.071,839.402-29.55,841.477-29.603z M878.634-27.978c4.998,0.43,6.534,3.902,7.625,7.625
							c-2.223-0.133-4.371-0.141-6.469-0.094c-1.004-2.65-2.267-5.158-5.344-6.656c4.548,0.75,7.104,3.465,9.344,6.5
							C882.473-23.295,881.319-26.077,878.634-27.978z M825.352-27.791l3.875,0.938c-3.921,0.165-7.093,1.244-9.75,2.906
							c-0.923-0.275-1.853-0.54-2.813-0.781C819.087-26.296,821.835-27.465,825.352-27.791z M868.852-26.697
							c4.484,0.543,7.134,3.295,9.563,6.281c-1.461,0.059-2.888,0.144-4.281,0.281c-1.436-2.564-3.489-4.801-7.094-6.187
							L868.852-26.697z M839.29-25.822c3.164-0.044,6.175,0.386,8.813,2.031c-3.261-0.957-6.601-0.47-9.969,0.531
							c-0.41-0.802-0.846-1.613-1.313-2.438C837.643-25.755,838.483-25.811,839.29-25.822z M863.29-25.009
							c3.561,0.89,6.092,2.855,8.219,5.219c-0.782,0.106-1.555,0.215-2.313,0.344c-1.572-1.864-3.562-3.346-6.5-4L863.29-25.009z
							 M830.821-24.759c-2.325,0.581-4.33,1.485-6.125,2.594c-0.654-0.258-1.323-0.509-2-0.75
							C825.186-23.905,827.858-24.615,830.821-24.759z M842.227-23.259c2.283-0.045,4.442,0.373,6.281,1.812
							c-2.559-0.747-5.65-0.005-8.906,1.219c-0.38-0.861-0.801-1.731-1.25-2.625C839.67-23.07,840.967-23.235,842.227-23.259z
							 M832.165-23.072c0.407-0.02,0.826-0.011,1.25,0c-1.869,0.469-3.53,1.357-5.063,2.5c-0.722-0.34-1.461-0.679-2.219-1
							C827.961-22.389,829.927-22.963,832.165-23.072z M837.509-22.26c-2.628,0.553-4.676,1.663-6.344,3.094
							c-0.383-0.206-0.761-0.424-1.156-0.625C832.112-20.905,834.572-21.774,837.509-22.26z M862.321-21.541
							c1.959,0.534,3.527,1.383,4.875,2.438c-0.504,0.101-0.976,0.233-1.469,0.344C864.765-19.875,863.666-20.826,862.321-21.541z
							 M837.946-20.291c-1.05,0.601-2.004,1.247-2.875,1.938c-0.469,0.208-0.937,0.416-1.406,0.625
							c-0.345-0.209-0.706-0.42-1.063-0.625C834.115-19.35,835.854-20.05,837.946-20.291z M845.165-20.259
							c1.025,0.034,2.049,0.204,3.094,0.469c-0.062,0.062-0.126,0.126-0.187,0.188c-2.465-0.191-4.953,0.664-7.438,1.937
							c-0.237-0.626-0.505-1.289-0.781-1.937c1.411-0.352,2.845-0.574,4.281-0.625C844.474-20.241,844.823-20.271,845.165-20.259z
							 M859.821-19.853c1.621,0.281,2.945,0.835,4.094,1.531c-0.545,0.139-1.065,0.287-1.594,0.437
							C861.638-18.659,860.82-19.327,859.821-19.853z M845.946-18.134c0.237-0.006,0.454,0.017,0.687,0.031
							c-0.074,0.081-0.145,0.169-0.219,0.25l-5.094,1.375c0,0-0.14,0.278-0.156,0.313c-0.085-0.251-0.189-0.495-0.281-0.75
							C842.62-17.598,844.328-18.096,845.946-18.134z M834.509-17.884c-0.154,0.13-0.289,0.273-0.438,0.406
							c-0.083-0.052-0.166-0.105-0.25-0.156C834.05-17.719,834.28-17.8,834.509-17.884z M858.477-17.884
							c0.419,0.246,0.79,0.526,1.156,0.813c-0.949,0.317-1.863,0.652-2.75,1c-0.473-0.366-0.971-0.737-1.531-1.031L858.477-17.884z
							 M839.978-17.509c-0.101,0.108-0.184,0.23-0.281,0.343c-0.907,0.501-1.81,1.025-2.719,1.594
							c-0.432-0.311-0.887-0.6-1.344-0.906C836.967-17.147,838.379-17.547,839.978-17.509z M838.884-16.072
							c-0.277,0.417-0.54,0.874-0.781,1.344c-0.265-0.203-0.568-0.392-0.844-0.594C837.803-15.579,838.342-15.827,838.884-16.072z
							 M832.165-15.947c-0.126,0.244-0.233,0.473-0.344,0.719c-0.049,0.057-0.076,0.13-0.125,0.187
							C831.855-15.343,831.99-15.645,832.165-15.947z M833.759-14.509c-0.943,5.308-0.229,6.508,0.844,10.844
							c-0.766,1.319-1.528,2.538-2.25,3.625C831.528-5.293,831.084-10.421,833.759-14.509z M853.04-14.416
							c-0.322,0.157-0.627,0.308-0.937,0.469l0.094-0.313L853.04-14.416L853.04-14.416z M839.852-13.509
							c-0.018,0.036-0.044,0.088-0.062,0.125c-0.028-0.024-0.066-0.039-0.094-0.062C839.748-13.467,839.799-13.495,839.852-13.509
							L839.852-13.509z M856.821-13.478c0.033,0.019,0.061,0.043,0.094,0.062c2.437,4.253,3.406,8.287,3.719,12.25
							c-0.806-0.355-1.614-0.685-2.406-1c0.249-1.623,0.347-3.243,0.25-4.875c0.405,0.429,0.82,0.846,1.219,1.281
							c-0.389-1.372-0.884-2.653-1.563-3.781C857.865-10.844,857.459-12.164,856.821-13.478L856.821-13.478z M854.602-13.416
							c0.169,0.24,0.319,0.475,0.469,0.719c-0.112-0.069-0.227-0.123-0.344-0.188C854.688-13.062,854.646-13.237,854.602-13.416z
							 M836.852-13.385c0.031,0.427,0.091,0.855,0.156,1.281c-0.482,1.459-0.879,3.085-1.156,4.844
							c0.526-0.941,1.009-2.068,1.5-3.125c0.096,0.372,0.223,0.748,0.344,1.125c-0.59,1.119-1.23,2.276-1.875,3.437
							c-0.29,0.066-0.585,0.137-0.844,0.219c0.248-0.032,0.5-0.035,0.75-0.062c-0.329,0.591-0.668,1.174-1,1.75
							C834.411-8.678,834.068-10.34,836.852-13.385z M831.009-13.009c-1.201,4.37-0.385,8.977,0.875,13.625
							c-0.219,0.316-0.417,0.63-0.625,0.906c-0.757,1.008-1.481,2.04-2.219,3.062c-0.479-5.694-0.751-11.38,1.469-17.094
							C830.675-12.676,830.841-12.846,831.009-13.009z M851.665-11.978c0.146,0.051,0.296,0.101,0.438,0.156
							c0.475,0.667,0.853,1.394,1.156,2.156c-0.512-0.605-1.086-1.163-1.75-1.656L851.665-11.978z M870.977-11.791l3.625,1.969
							c2.538,6.118,2.462,12.408,2.531,18.687c-1.156-0.93-2.357-1.79-3.531-2.625C873.75,0.113,873.618-5.971,870.977-11.791z
							 M865.259-11.759l2.938,2c3.63,4.93,4.257,10.15,4.562,15.406c-0.881-0.608-1.771-1.193-2.656-1.75
							c0.094-5.318-1.039-10.497-4.781-15.343C865.294-11.549,865.287-11.658,865.259-11.759z M862.446-11.509
							c3.506,4.358,5.159,9.385,6.344,14.562c-1.077-0.647-2.145-1.239-3.219-1.813C865.415-3.026,864.69-7.287,862.446-11.509z
							 M876.977-11.228c6.234,8.015,5.843,17.066,6.563,25.938c-1.807-1.847-3.663-3.549-5.563-5.125
							C879.117,2.543,880.035-4.476,876.977-11.228z M855.196-10.103c0.527,0.388,1.018,0.842,1.5,1.281
							c0.524,2.031,0.605,4.138,0.5,6.281c-0.666-0.252-1.315-0.525-1.969-0.75c0.077-0.8,0.136-1.618,0.156-2.438
							c0.216,0.294,0.439,0.582,0.656,0.875c-0.203-0.479-0.433-0.942-0.656-1.406C855.394-7.516,855.359-8.783,855.196-10.103z
							 M851.384-10.009c0.953,0.639,1.765,1.435,2.5,2.313c0.298,1.299,0.431,2.699,0.5,4.125c-0.712-0.234-1.431-0.455-2.125-0.656
							c-0.305-0.91-0.625-1.798-1-2.625C851.379-7.924,851.405-8.98,851.384-10.009z M861.571-9.478
							c0.994,1.596,1.699,3.277,2.219,5.031C863.004-6.096,862.331-7.807,861.571-9.478z M860.696-9.353
							c1.055,1.692,1.947,3.496,3.156,5.062c0.49,1.694,0.831,3.448,1.094,5.219c-1.147-0.598-2.274-1.17-3.406-1.687
							C861.647-3.784,861.489-6.701,860.696-9.353z M849.946-7.041c0.102,0.695,0.113,1.444,0.062,2.219
							c-0.417-0.103-0.81-0.221-1.219-0.312c-0.086-0.385-0.196-0.76-0.312-1.125C849.201-6.672,849.577-6.849,849.946-7.041z
							 M847.634-5.759c0.06,0.13,0.1,0.273,0.156,0.406c-0.212-0.044-0.416-0.054-0.625-0.094
							C847.33-5.548,847.475-5.665,847.634-5.759z M851.04-5.541c0.219,0.38,0.431,0.762,0.625,1.156
							c-0.283-0.079-0.565-0.145-0.844-0.219C850.917-4.921,850.973-5.228,851.04-5.541z M845.696-4.509
							c0.622,1.321-0.168,0.981-2.531,1.875c0.737-0.612,1.517-1.212,2.313-1.75c0.06,0.132,0.089,0.2,0.156,0.344
							c-0.03-0.172-0.039-0.252-0.062-0.406C845.61-4.473,845.658-4.484,845.696-4.509z M849.884-4.26
							c-0.072,0.768-0.303,1.49-0.656,2.187c-0.057-0.563-0.106-1.11-0.187-1.656C849.291-3.881,849.563-4.042,849.884-4.26z
							 M342.665-3.603c3.188-0.036,6.622,0.761,10,1.375c-0.718,0.719-1.397,1.436-2.063,2.156
							c-4.769-1.541-9.537-2.983-13.344-0.156l-1.062-1.531C338.143-3.102,340.333-3.577,342.665-3.603z M359.259-2.51
							c7.751,1.151,13.215,5.679,18.75,10.125c-1.226,0.119-2.446,0.282-3.625,0.469c-4.128-4.097-8.416-7.98-15.219-8.843
							L359.259-2.51L359.259-2.51z M681.884-1.728l-1.031,1.531l-12.375,3.781l-0.25,3.031
							c-20.792,11.816-41.583,16.395-62.375,21.719h68.219c-0.016,0.125-0.026,0.25-0.031,0.375c0.009,2.598,2.389,4.89,5.875,5.656
							l-9.563,117.906l2.75,0.219l9.562-117.844c4.486-0.116,8.037-2.741,8.031-5.938c-0.005-0.125-0.015-0.25-0.031-0.375h68.219
							c-20.792-5.324-41.583-9.902-62.375-21.719l-0.25-3.031l-12.375-3.781l-1-1.531H681.884L681.884-1.728z M307.978-0.572
							c-2.895,5.182-2.079,11.659-0.938,18.219c-1.428-0.049-2.883-0.071-4.375-0.031c0.325-6.824-0.294-14.507,3.75-17.969
							L307.978-0.572z M311.446-0.259l1.281,1.937c-3.193,3.717-2.821,9.854-2.219,16.156c-0.78-0.066-1.574-0.116-2.375-0.156
							C308.074,10.778,308.103,3.943,311.446-0.259z M344.759-0.166c1.729,0.016,3.52,0.321,5.313,0.656
							c-0.575,0.635-1.152,1.272-1.688,1.906c-3.428-1.081-6.782-1.821-9.625-0.969C340.622,0.218,342.648-0.185,344.759-0.166z
							 M359.447,1.334c5.816,0.964,9.96,3.829,13.906,6.938c-1.049,0.185-2.085,0.36-3.094,0.594
							C367.077,5.716,363.711,2.827,359.447,1.334z M344.79,2.397c1.062,0.029,2.146,0.211,3.25,0.437
							c-0.661,0.794-1.276,1.588-1.875,2.375c-2.496-1.049-4.907-1.549-7.125-0.875c1.438-1.221,3.012-1.778,4.688-1.906
							C344.074,2.401,344.436,2.387,344.79,2.397z M357.103,3.365c5.369,0.468,9.166,2.824,12.562,5.656
							c-1.341,0.325-2.641,0.693-3.906,1.094C363.515,7.203,360.891,4.681,357.103,3.365z M314.071,4.178
							c-1.423,3.66-1.124,8.731-0.594,13.969c-0.739-0.095-1.49-0.178-2.25-0.25C311.218,12.699,311.46,7.667,314.071,4.178z
							 M316.852,5.553c-1.378,3.51-0.777,8.196,0.344,13.188c-1.089-0.205-2.202-0.377-3.344-0.531
							C313.638,13.175,313.948,8.477,316.852,5.553z M356.259,5.616c3.073,1.189,5.532,3.027,7.75,5.093
							c-1.063,0.375-2.091,0.767-3.094,1.188c-2.299-2.184-4.873-4.061-8.125-5.187L356.259,5.616z M342.603,6.397
							c0.805,0.02,1.611,0.149,2.438,0.313c-0.574,0.8-1.113,1.589-1.625,2.375c-1.425-0.183-2.811-0.152-4.125,0.25l0.844-2.656
							c0.548-0.134,1.091-0.221,1.656-0.25C342.055,6.414,342.334,6.39,342.603,6.397z M321.634,7.584
							c-1.298,3.292-1.111,7.539-0.563,12c-0.862-0.22-1.756-0.406-2.656-0.594c-0.411-4.083-0.584-8.016,0.5-11.219L321.634,7.584
							L321.634,7.584z M352.04,9.553c3.084,0.352,5.477,1.469,7.563,2.906c-0.667,0.3-1.331,0.62-1.969,0.937
							c-2.377-1.717-5.253-2.859-8.938-3.094L352.04,9.553z M326.478,10.022c-2.566,2.369-3.108,6.026-2.656,10.344
							c-0.641-0.196-1.272-0.383-1.938-0.562c-0.14-3.628,0.145-7.01,2.187-9.281L326.478,10.022z M341.946,11.459
							c-0.463,0.789-0.911,1.578-1.313,2.344c-0.289,0.2-0.566,0.433-0.844,0.687l1-2.344
							C341.164,11.857,341.554,11.65,341.946,11.459z M328.54,11.49c-1.437,2.797-1.537,6.305-1.156,10.094
							c-0.769-0.293-1.564-0.576-2.375-0.844C325.441,17.012,326.27,13.638,328.54,11.49L328.54,11.49z M333.196,11.49
							c-1.905,3.299-0.89,8.059,0.687,13.094c-0.833-0.46-1.714-0.911-2.625-1.344C330.809,18.905,330.946,14.781,333.196,11.49
							L333.196,11.49z M347.29,12.084c3.111,0.219,5.827,1.116,8.344,2.344c-0.591,0.325-1.157,0.663-1.719,1
							C352.051,13.989,349.914,12.801,347.29,12.084z M330.821,12.147c-1.27,2.483-0.894,6.466-0.094,10.844
							c-0.929-0.429-1.901-0.826-2.906-1.219C327.855,17.75,328.214,13.997,330.821,12.147L330.821,12.147z M334.009,14.272
							c0.175,0.553,0.347,1.098,0.531,1.625c0.042,3.289,0.787,6.669,1.75,10.094c-0.606-0.386-1.249-0.751-1.906-1.125
							C333.477,20.796,332.819,16.877,334.009,14.272z M347.384,14.428c1.026-0.005,2.07,0.076,3.125,0.156
							c0.908,0.375,1.766,0.836,2.594,1.344c-0.703,0.44-1.378,0.889-2.031,1.344C349.937,16.137,348.733,15.154,347.384,14.428z
							 M344.103,14.772c2.112,0.66,3.863,1.585,5.406,2.656c-1.089-0.412-2.152-0.789-3.219-1.031
							c-0.754-0.595-1.606-1.114-2.563-1.531C343.85,14.832,343.979,14.801,344.103,14.772z M341.415,15.866
							c0.388,0.066,0.765,0.147,1.125,0.25c-0.264,0.029-0.521,0.101-0.781,0.156c-0.158-0.104-0.306-0.211-0.469-0.312
							C341.331,15.932,341.373,15.892,341.415,15.866z M344.79,17.053c1.197,0.677,2.226,1.554,3.156,2.562
							c-0.171,0.142-0.334,0.296-0.5,0.437c-0.75-0.321-1.472-0.619-2.187-0.844c-0.634-0.673-1.326-1.327-2.094-1.937
							C343.693,17.144,344.226,17.068,344.79,17.053z M347.228,17.209c0.879,0.122,1.763,0.303,2.656,0.469
							c0.103,0.075,0.211,0.142,0.313,0.219c-0.496,0.362-0.973,0.727-1.438,1.094C348.286,18.358,347.796,17.758,347.228,17.209z
							 M340.915,18.365c0.368,0.083,0.715,0.149,1.062,0.281c-0.268,0.009-0.526,0.048-0.781,0.094
							C341.095,18.62,341.019,18.487,340.915,18.365z M340.509,18.709c0.005-0.005,0.026,0.005,0.031,0
							c0.052,0.054,0.105,0.102,0.156,0.156c-0.167,0.049-0.34,0.088-0.5,0.156C340.298,18.907,340.404,18.812,340.509,18.709
							L340.509,18.709z M335.821,19.209c0.462,1.085,0.955,2.104,1.437,3.031c-0.356,1.358-0.557,2.595-0.656,3.719
							c-0.046,0.062-0.081,0.125-0.125,0.188c-0.044-0.028-0.081-0.066-0.125-0.094C336.041,23.64,335.746,21.22,335.821,19.209z
							 M350.978,19.772c0.659,0.91,1.21,1.823,1.688,2.75c-0.134-0.066-0.272-0.121-0.406-0.187
							C351.929,21.455,351.522,20.604,350.978,19.772z M343.696,20.053c0.289,0.001,0.553,0.038,0.844,0.062
							c0.501,0.378,0.994,0.775,1.469,1.219c-0.187,0.176-0.352,0.355-0.531,0.532c-0.846-0.416-1.677-0.723-2.5-0.907
							c-0.201-0.262-0.38-0.512-0.594-0.781C342.819,20.118,343.26,20.052,343.696,20.053z M341.946,20.209
							c0.191,0.219,0.379,0.436,0.563,0.656c-0.527-0.083-1.049-0.112-1.563-0.062c-0.047-0.102-0.108-0.182-0.156-0.281
							C341.172,20.392,341.563,20.282,341.946,20.209z M346.321,20.397c0.188,0.042,0.374,0.107,0.562,0.156
							c-0.083,0.074-0.168,0.145-0.25,0.219C346.535,20.645,346.423,20.522,346.321,20.397z M350.04,22.24
							c0.473,0.655,0.943,1.302,1.406,1.969c0.949,2.678,0.944,5.791,0.781,8.969c-0.765-0.981-1.5-1.926-2.219-2.875
							c0.312-2.147,0.612-3.495,0.531-5.062c0.292,0.153,0.584,0.321,0.875,0.469c-0.305-0.219-0.602-0.438-0.906-0.656
							C350.455,24.266,350.318,23.358,350.04,22.24z M344.04,22.366c0.248,0.056,0.497,0.109,0.75,0.187
							c-0.092,0.095-0.192,0.187-0.281,0.281c0,0-0.031-0.031-0.031-0.031c-0.095-0.083-0.211-0.153-0.313-0.219
							C344.117,22.516,344.089,22.434,344.04,22.366L344.04,22.366z M352.321,22.49c0.144,0.059,0.294,0.098,0.438,0.156
							c2.38,4.71,2.633,9.635,2.719,14.563c-0.918-1.101-1.842-2.242-2.781-3.438C353.331,29.849,353.588,26,352.321,22.49z
							 M347.196,22.522c0.238,0.247,0.483,0.497,0.719,0.75c-0.238-0.154-0.482-0.293-0.719-0.437
							C347.197,22.733,347.198,22.623,347.196,22.522z M310.478,22.615l0.5,0.719c0.033,0.432,0.068,0.855,0.094,1.281
							c-3.739,4.401-5.131,9.457-6,14.656c-0.892,0.484-1.79,0.996-2.688,1.531C303.973,34.291,305.885,27.913,310.478,22.615
							L310.478,22.615z M340.478,22.647c0.008,0.012,0.023,0.019,0.031,0.031c-0.02,0.009-0.042,0.022-0.062,0.032
							c-0.003-0.009,0.003-0.022,0-0.032C340.459,22.671,340.465,22.653,340.478,22.647L340.478,22.647z M337.634,22.928
							c0.229,0.417,0.457,0.807,0.688,1.188c-0.465,0.401-0.885,0.839-1.281,1.312C337.172,24.613,337.353,23.783,337.634,22.928z
							 M347.165,23.522c0.586,0.278,1.188,0.564,1.781,0.875c0.813,1.405,0.816,3.013,0.906,5.688
							c-1.137-1.504-2.174-2.891-3.031-4.063C347.005,25.164,347.122,24.341,347.165,23.522z M311.227,23.678l0.281,0.406
							c-0.111,0.122-0.206,0.251-0.313,0.375C311.203,24.198,311.224,23.941,311.227,23.678L311.227,23.678z M333.54,25.49
							c-0.669,0.906-1.178,1.822-1.594,2.75c-0.023-0.146-0.04-0.292-0.062-0.437C332.375,27.031,332.916,26.265,333.54,25.49z
							 M312.477,26.147c-2.029,3.419-3.056,7.266-3.75,11.25c-0.797,0.375-1.571,0.772-2.375,1.188
							C307.577,34.238,309.246,29.998,312.477,26.147z M315.446,26.397c-1.762,2.955-2.547,6.089-2.844,9.313
							c-1.008,0.403-2.04,0.847-3.062,1.312C310.617,33.234,312.3,29.619,315.446,26.397z M320.634,26.459
							c-1.419,2.376-2.314,4.875-2.906,7.438c-0.991,0.304-1.989,0.635-3,1c0.559-2.419,1.356-4.802,2.625-7.094L320.634,26.459z
							 M325.821,26.928c-1.897,1.856-3.243,3.823-4.187,5.906c-0.683,0.163-1.367,0.34-2.063,0.532
							c0.768-1.693,1.814-3.325,3.25-4.875L325.821,26.928z M334.634,26.928c0.018,0.053,0.045,0.103,0.062,0.156
							c-0.501,1.445-0.873,2.841-1.094,4.219c-0.443,0.006-0.889,0.012-1.344,0.031c0.028-0.094,0.063-0.188,0.094-0.281
							c-0.002-0.01,0.002-0.021,0-0.031C332.826,29.572,333.563,28.201,334.634,26.928L334.634,26.928z M330.446,27.272
							c-0.903,1.321-1.531,2.797-1.969,4.375c-0.548,0.062-1.096,0.137-1.656,0.219C327.712,30.188,328.861,28.626,330.446,27.272z
							 M327.915,27.553c-1.005,1.466-1.755,2.978-2.344,4.5c-0.423,0.071-0.852,0.137-1.281,0.219
							C325.284,30.594,326.452,29.003,327.915,27.553z M331.727,28.053c0.033,0.157,0.061,0.312,0.094,0.469
							c-0.404,0.957-0.684,1.931-0.875,2.906c-0.322,0.022-0.641,0.034-0.969,0.062C330.449,30.348,331.015,29.201,331.727,28.053
							L331.727,28.053z M335.196,30.834c0.045,0.159,0.118,0.317,0.188,0.469c-0.124-0.003-0.25,0.002-0.375,0
							C335.068,31.148,335.131,30.986,335.196,30.834z M497.259,84.959l-0.125,2.562l-51.063,1.875l-0.312-2.531L497.259,84.959z
							 M706.759,87.834c2.205,0.034,4.427,0.198,6.531,0.375c0.034,0.006,0.06,0.025,0.094,0.031
							c0.194,0.431,0.408,0.982,0.719,1.75l-11.438-0.594c-0.427-0.042-0.835-0.069-1.219-0.062
							c-1.194,0.019-2.152,0.288-2.969,0.719c-1.143-0.41-2.121-0.849-2.187-1.312c2.51-0.564,5.365-0.823,8.281-0.875
							C705.3,87.852,706.024,87.823,706.759,87.834L706.759,87.834z M737.946,88.397c0.524,0.019,1.044,0.137,1.563,0.313
							c2.774,1.19,4.977,3.5,7.875,4.375c1.148,0.652,5.646,1.663,2.344,1.844c-1.139,0.088-2.266,0.394-3.281,0.906
							c-0.398-1.775-0.893-3.478-3.969-4.344l-11.625-0.625l0.094-0.312c0.166,0.009,0.334,0.023,0.5,0.031
							c1.863-0.869,3.896-2.031,5.969-2.156C737.588,88.418,737.772,88.391,737.946,88.397L737.946,88.397z M496.915,92.772
							l-0.125,2.156l-49.875,1.812l-0.25-2.125L496.915,92.772z M564.227,93.24h4.594c-0.007,0.611,0.02,1.295,0.031,2.063h-4.406
							L564.227,93.24L564.227,93.24z M610.727,93.24h5.031l-0.219,2.063h-4.719C610.8,94.513,610.783,93.829,610.727,93.24
							L610.727,93.24z M564.853,99.49h4.125c0.022,0.566,0.035,1.093,0.063,1.688h-4L564.853,99.49z M610.853,99.49h4.281
							l-0.188,1.688h-4.156C610.811,100.599,610.839,100.039,610.853,99.49z M496.571,100.115l-0.094,2.156l-48.687,1.781
							l-0.25-2.125L496.571,100.115L496.571,100.115z M565.477,105.365h3.781c0.033,0.564,0.059,1.117,0.094,1.688h-3.687
							L565.477,105.365L565.477,105.365z M610.571,105.365h3.969l-0.187,1.688h-3.875
							C610.516,106.491,610.538,105.921,610.571,105.365L610.571,105.365z M701.696,105.491c0.402,0.396,0.714,0.834,0.687,1.344
							c-0.075,1.432,0.481,2.316,0.188,3.531c-0.294,1.216,1.419,5.887,0.875,7.5c0.437,0.976,0.776,1.746,1.031,2.437
							l-1.062,20.094c-5.328-6.901-5.535-24.002-2.313-34.75C701.294,105.605,701.491,105.561,701.696,105.491L701.696,105.491z
							 M354.227,106.49c0.018-0.005,0.028,0.008,0.031,0.031c0.042,0.276,0.532,0.196,0.75,0.281
							c0.226,0.088,0.363-0.007,0.656,0.188c0.16,0.106,0.187,0.362,0.312,0.656c0.074,0.175,0.075,0.506,0.188,0.719
							c0.183,0.348,0.311,0.74,0.375,1.156c0.067,0.441,0.172,0.898,0.187,1.344c0.013,0.397-0.094,0.721-0.156,1.063
							c-0.059,0.32-0.015,0.532-0.094,0.812c-0.106,0.377-0.131,0.869-0.063,1.312c0.091,0.68,0.09,1.415,0.313,2.063
							c0.102,0.298,0.275,0.432,0.437,0.719c0.139,0.245,0.282,0.311,0.375,0.437c0.206,0.283,0.394,0.406,0.5,0.688
							c0.096,0.254,0.101,0.54,0.156,0.813c0.043,0.222,0.089,0.429,0.031,0.531c-0.175,0.32-0.286,0.44-0.406,0.719
							c-0.094,0.218-0.304,0.248-0.563,0.375c-0.32,0.156-0.755,0.203-1.125,0.219c-0.559,0.024-0.554-0.142-1.063-0.281
							c-0.382-0.105-0.557-0.32-0.844-0.562c-0.178-0.151-0.332-0.302-0.469-0.437c-0.131-0.13-0.288-0.273-0.438-0.344
							c-0.644-0.302-0.996-0.595-1.125-1.437l-0.156-1.063c-0.05-0.327,0.04-0.613,0.219-0.906c0.178-0.291,0.423-0.423,0.563-0.719
							c0.102-0.215,0.214-0.31,0.344-0.469c0.507-0.62,1.098-1.243,1.312-2.125c0.072-0.301,0.201-0.564,0.094-0.906
							c-0.082-0.265-0.005-0.568-0.062-0.844c-0.096-0.459-0.052-0.937-0.219-1.375c-0.082-0.216-0.289-0.563-0.375-0.781
							c-0.096-0.246-0.222-0.412-0.219-0.719c0.002-0.266-0.048-0.582-0.062-0.844c-0.016-0.286,0.245-0.146,0.312-0.156h0.031
							C354.066,106.633,354.174,106.504,354.227,106.49L354.227,106.49z M496.228,107.49l-0.094,2.125l-47.469,1.75l-0.25-2.094
							L496.228,107.49L496.228,107.49z M741.134,109.647c1.234,11.101-1.806,26.551-6.344,32.5l0.844-16.375
							c0.845-1.524,1.579-4.106,2.781-8.375c0.128-2.455,0.621-1.732,0.75-4.187C739.264,111.309,740.587,110.62,741.134,109.647
							L741.134,109.647z M566.071,111.24h3.562c0.042,0.583,0.112,1.145,0.156,1.719h-3.531L566.071,111.24z M610.134,111.24h3.781
							l-0.156,1.719h-3.781C610.032,112.391,610.083,111.82,610.134,111.24z M495.884,114.866l-0.094,2.125l-46.219,1.687
							l-0.281-2.093L495.884,114.866L495.884,114.866z M566.696,117.116h3.437c0.055,0.608,0.1,1.145,0.156,1.719h-3.406
							L566.696,117.116z M609.54,117.116h3.781l-0.187,1.719h-3.813C609.398,118.274,609.467,117.717,609.54,117.116z
							 M888.634,118.303l3.187,0.437l3.75,33.375l-3.594-0.344L888.634,118.303L888.634,118.303z M495.54,122.209l-0.094,2.156
							l-45,1.656l-0.281-2.125L495.54,122.209L495.54,122.209z M567.29,122.991h3.438c0.081,0.636,0.17,1.208,0.25,1.719h-3.5
							L567.29,122.991z M608.602,122.991h4.094l-0.187,1.719h-4.313C608.341,124.266,608.46,123.665,608.602,122.991z
							 M824.978,130.553c0.155-0.005,0.681,0.038,0.812,0.062l-0.875,17.344c-1.435,0.067-3.223-0.558-3.125-3.219
							c0.561-6.79,0.386-4.043,0.562-11.063C822.379,131.409,823.894,130.59,824.978,130.553z M844.29,131.865
							c2.073,0.043,2.803,0.715,3.156,2.063c-0.25,7.68-0.151,5.666-0.687,13.406c-0.432,2.168-2.11,1.819-3.313,1.437
							L844.29,131.865z M563.446,136.928h53.219c-0.033,0.155-0.062,0.305-0.062,0.469v5.375h-53.094v-5.375
							C563.509,137.233,563.479,137.083,563.446,136.928z M500.04,138.459c-0.028,0.156-0.038,0.305-0.031,0.469l0.188,5.375
							l-53.063,1.937l-0.187-5.344c-0.006-0.164-0.055-0.347-0.094-0.5L500.04,138.459L500.04,138.459z M315.071,146.866
							c0.138,0.031,0.076,0.623,0.156,0.844c0.065,0.177,0.102,0.345,0.156,0.531c0.048,0.188,0.062,0.407,0.125,0.594
							c0.058,0.161,0.068,0.33,0.094,0.5l0.125,0.656c0.014,0.095,0.072,0.201,0.094,0.344c0.02,0.132,0.042,0.25,0.094,0.375
							c0.055,0.145,0.114,0.337,0.125,0.5c0.009,0.102,0.067,0.236,0,0.281c-0.033,0.023-0.07,0.195-0.156,0.25
							c-0.121,0.078-0.174,0.107-0.313,0.156c-0.156,0.056-0.283,0.128-0.469,0.156l-1.406,0.187
							c-0.582-0.058-1.28-0.012-1.782-0.375c-0.049-0.162-0.111-0.256-0.125-0.437c-0.05-0.444-0.21-0.897-0.219-1.344
							c-0.004-0.176,0.072-0.434,0.187-0.594c0.124-0.172,0.243-0.246,0.344-0.437c0.064-0.122,0.174-0.209,0.25-0.344
							c0.1-0.174,0.276-0.327,0.375-0.5c0.12-0.21,0.316-0.276,0.469-0.437c0.128-0.135,0.293-0.267,0.469-0.344
							c0.189-0.085,0.383-0.223,0.594-0.281c0.196-0.055,0.375-0.14,0.594-0.187c0.052-0.009,0.112-0.033,0.156-0.062
							C315.038,146.876,315.052,146.861,315.071,146.866L315.071,146.866z M563.509,148.178h53.094v2.875
							c0,0.34,0.081,0.676,0.219,0.969c-17.882-0.076-35.791-0.035-53.625,0.125c0.178-0.329,0.313-0.699,0.313-1.094V148.178z
							 M923.634,149.053l0.312,5.094l-7.031,1.406l-0.688-5.906L923.634,149.053z M700.103,149.522l39.563,2.094l-0.156,2.812
							c-13.008-0.483-26.22-0.9-39.594-1.25L700.103,149.522z M500.384,149.709l0.125,2.875c0.008,0.23,0.052,0.448,0.125,0.656
							c-18.054,0.441-35.829,1.004-53.219,1.687c0.019-0.132,0.036-0.268,0.031-0.406l-0.125-2.844L500.384,149.709L500.384,149.709
							z M819.79,155.99l1.906,0.094l-0.125,2.312c-0.822-0.042-1.644-0.083-2.468-0.125L819.79,155.99L819.79,155.99z
							 M923.04,156.522l0.75,0.094l1.406,10.906c-3.556-0.413-7.182-0.82-10.875-1.219
							C917.212,163.04,920.117,159.757,923.04,156.522L923.04,156.522z M822.821,156.678l18.844,0.969l-0.094,2.187
							c-6.173-0.465-12.456-0.913-18.844-1.344L822.821,156.678z M891.727,156.834l14.25,1.406l1.031,7.312
							c-6.976-0.755-14.188-1.485-21.625-2.187L891.727,156.834z M843.571,157.74l2.406,0.125l-0.094,2.25
							c-0.801-0.053-1.603-0.105-2.406-0.156L843.571,157.74z M908.759,158.522l6.281,0.594l0.438,2.063l-4.813,4.75
							c-0.208-0.021-0.416-0.042-0.625-0.062L908.759,158.522z M304.384,158.803c1.356-0.114,2.037,1.499,2.844,2.437
							c0.576,0.67,1.153,1.742,1.312,2.781c-2.482,0.226-4.94,0.455-7.375,0.687c0.309-0.874,0.525-1.752,0.781-2.844
							c0.233-0.992,0.682-2.428,1.812-2.906C303.982,158.865,304.19,158.819,304.384,158.803z"/>

							<linearGradient id="path3778-8_1_" gradientUnits="userSpaceOnUse" x1="635.3058" y1="117.7712" x2="635.3058" y2="409.3475" gradientTransform="matrix(-2.3145 0 0 2.3096 2068.5002 -82.133)">
							<stop  offset="0" style="stop-color:#FFFFFF;stop-opacity:0"/>
							<stop  offset="1" style="stop-color:#AAEEFF"/>
						</linearGradient>
						<path id="path3778-8" opacity="0.3481" fill="url(#path3778-8_1_)" enable-background="new    " d="M1003.562,402.532
							l-18.719-35.052l-386-193.68l-0.094,1.158l345.531,227.574H1003.562L1003.562,402.532z M598.75,174.958l-0.625-0.421
							l0.625,0.526V174.958L598.75,174.958z M598.75,175.063l-0.469,7.473l-0.687-7.558L334.5,398.426l57-0.442l202.469-216.164
							l-160.062,215.7l36.938,0.906l120.469-208.29l-88.094,207.385h29.656l63.656-205.09l-37.219,204.627h28.75l10.75-191.006
							l10.719,191.006h27.375l-36.125-203.701l62.563,204.164H693l-88.937-209.784l121.312,210.69l36.938-0.906l-160.062-215.7
							l202.469,216.164l57,0.442L598.75,175.063z M597.594,174.979l0.5-0.442l-0.531,0.337L597.594,174.979L597.594,174.979z
							 M597.562,174.873l-0.094-1.116L211.375,367.48l-18.719,35.052h59.281L597.562,174.873L597.562,174.873z M597.469,173.758
							l0.656-0.316l0.719,0.358l0.031-0.758l2-1.01l403.156,147.639l-1.281-83.009L602,171.484l13.875-6.968l-17.75,6.505
							l-17.781-6.505l13.875,6.968l-400.75,65.177l-1.281,83.009l403.156-147.639l2.062,1.053L597.469,173.758L597.469,173.758z"/>
					</g>
				</g>
			</g>
		</g>
	</g>
</g>
</svg>
